<svg xmlns="http://www.w3.org/2000/svg" viewBox="160 343 26 38" width="26pt" height="38pt"><g fill="none"><title>Canvas 1</title><title>Layer 1</title><path d="M172.914 378c-.732-3.596-2.024-6.59-3.588-9.362-1.16-2.057-2.505-3.956-3.748-5.95-.415-.667-.774-1.37-1.173-2.062-.797-1.382-1.444-2.984-1.403-5.063.04-2.03.627-3.66 1.474-4.992 1.393-2.19 3.727-3.985 6.857-4.457 2.56-.386 4.96.266 6.662 1.26a9.64 9.64 0 0 1 3.287 3.18c.854 1.337 1.442 2.916 1.492 4.975a9.19 9.19 0 0 1-.39 2.842c-.247.82-.643 1.506-.996 2.238-.688 1.43-1.55 2.74-2.416 4.05-2.578 3.905-4.998 7.886-6.058 13.342z" fill="#ed1846"/><path d="M172.914 378c-.732-3.596-2.024-6.59-3.588-9.362-1.16-2.057-2.505-3.956-3.748-5.95-.415-.667-.774-1.37-1.173-2.062-.797-1.382-1.444-2.984-1.403-5.063.04-2.03.627-3.66 1.474-4.992 1.393-2.19 3.727-3.985 6.857-4.457 2.56-.386 4.96.266 6.662 1.26a9.64 9.64 0 0 1 3.287 3.18c.854 1.337 1.442 2.916 1.492 4.975a9.19 9.19 0 0 1-.39 2.842c-.247.82-.643 1.506-.996 2.238-.688 1.43-1.55 2.74-2.416 4.05-2.578 3.905-4.998 7.886-6.058 13.342z" stroke="#b11134" stroke-linecap="round" stroke-linejoin="round"/><circle cx="172.888" cy="355.54" r="3.464" fill="#fff"/><circle cx="172.888" cy="355.54" r="3.464" stroke="#b11134" stroke-linecap="round" stroke-linejoin="round"/></g></svg>