<svg xmlns="http://www.w3.org/2000/svg" viewBox="512 101 25 38" width="25pt" height="38pt"><g fill="none"><title>Canvas 1</title><title>Layer 1</title><path d="M524.374 136c.222-4.477 2.598-11.75 6.043-16.327 1.877-2.494 2.74-4.924 2.74-6.4 0-5.12-3.952-9.273-8.828-9.273-4.877 0-8.83 4.152-8.83 9.274 0 1.475.864 3.905 2.74 6.4 3.445 4.576 5.82 11.85 6.044 16.326z" fill="#149db5"/><path d="M524.374 136c.222-4.477 2.598-11.75 6.043-16.327 1.877-2.494 2.74-4.924 2.74-6.4 0-5.12-3.952-9.273-8.828-9.273-4.877 0-8.83 4.152-8.83 9.274 0 1.475.864 3.905 2.74 6.4 3.445 4.576 5.82 11.85 6.044 16.326z" stroke="#0f7680" stroke-linecap="round"/><circle cx="524.21" cy="113.284" r="3.178" fill="#fff"/><circle cx="524.21" cy="113.284" r="3.178" stroke="#0f7680" stroke-linecap="round"/></g></svg>